<svg fill="none" height="800" viewBox="0 0 24 24" width="800" xmlns="http://www.w3.org/2000/svg"><g stroke="#333" stroke-linecap="round" stroke-linejoin="round" stroke-width="2"><path d="m11.5672 9.91603-7.88656 7.88657c-1.02486 1.0249-1.22251 2.4889-.44146 3.2699s2.24503.5834 3.26988-.4415l7.88654-7.8865"/><path d="m18.1588 3.32443-2.9212 2.92119c-.3208.32083.2737.99272 1.0547 1.77376.7811.78105 1.4529 1.37549 1.7738 1.05466l2.9212-2.92119"/><path d="m18.1474 3.33589c-.546-.20461-1.1372-.31651-1.7546-.31651-2.7614 0-5 2.23858-5 5 0 .61738.1119 1.20863.3165 1.75456m9.367-3.50911c.2046.54593.3165 1.13718.3165 1.75455 0 2.76142-2.2386 5.00002-5 5.00002-.6174 0-1.2086-.1119-1.7546-.3165"/></g></svg>